<svg id="visual" viewBox="0 0 900 600" width="900" height="600" xmlns="http://www.w3.org/2000/svg" xmlns:xlink="http://www.w3.org/1999/xlink" version="1.1"><g stroke-width="1" stroke-linejoin="bevel"><path d="M460 300L378 332L396 376Z" fill="#00ccbf" stroke="#00ccbf"></path><path d="M396 376L513 408L460 300Z" fill="#3cbcb4" stroke="#3cbcb4"></path><path d="M631 309L486 214L460 300Z" fill="#00ccbf" stroke="#00ccbf"></path><path d="M460 300L363 169L378 332Z" fill="#00ccbf" stroke="#00ccbf"></path><path d="M363 169L293 282L378 332Z" fill="#2ac4ba" stroke="#2ac4ba"></path><path d="M378 332L279 429L396 376Z" fill="#00ccbf" stroke="#00ccbf"></path><path d="M293 282L279 429L378 332Z" fill="#747e7e" stroke="#747e7e"></path><path d="M396 376L436 513L513 408Z" fill="#00ccbf" stroke="#00ccbf"></path><path d="M298 518L436 513L396 376Z" fill="#747e7e" stroke="#747e7e"></path><path d="M486 214L363 169L460 300Z" fill="#718686" stroke="#718686"></path><path d="M575 491L592 416L513 408Z" fill="#747e7e" stroke="#747e7e"></path><path d="M513 408L631 309L460 300Z" fill="#5ba5a2" stroke="#5ba5a2"></path><path d="M464 600L471 537L436 513Z" fill="#747e7e" stroke="#747e7e"></path><path d="M436 513L471 537L513 408Z" fill="#5ba5a2" stroke="#5ba5a2"></path><path d="M592 416L631 309L513 408Z" fill="#6d8e8d" stroke="#6d8e8d"></path><path d="M363 169L271 198L293 282Z" fill="#00ccbf" stroke="#00ccbf"></path><path d="M293 282L193 371L279 429Z" fill="#689594" stroke="#689594"></path><path d="M471 537L575 491L513 408Z" fill="#53ada8" stroke="#53ada8"></path><path d="M592 416L662 397L631 309Z" fill="#49b5ae" stroke="#49b5ae"></path><path d="M279 429L298 518L396 376Z" fill="#6d8e8d" stroke="#6d8e8d"></path><path d="M175 295L193 371L293 282Z" fill="#6d8e8d" stroke="#6d8e8d"></path><path d="M279 429L229 496L298 518Z" fill="#3cbcb4" stroke="#3cbcb4"></path><path d="M677 466L662 397L592 416Z" fill="#49b5ae" stroke="#49b5ae"></path><path d="M715 238L605 172L631 309Z" fill="#2ac4ba" stroke="#2ac4ba"></path><path d="M631 309L605 172L486 214Z" fill="#3cbcb4" stroke="#3cbcb4"></path><path d="M486 214L480 79L363 169Z" fill="#00ccbf" stroke="#00ccbf"></path><path d="M271 198L209 225L293 282Z" fill="#718686" stroke="#718686"></path><path d="M193 371L229 496L279 429Z" fill="#53ada8" stroke="#53ada8"></path><path d="M209 225L175 295L293 282Z" fill="#689594" stroke="#689594"></path><path d="M605 172L480 79L486 214Z" fill="#2ac4ba" stroke="#2ac4ba"></path><path d="M363 169L309 98L271 198Z" fill="#49b5ae" stroke="#49b5ae"></path><path d="M271 198L220 136L209 225Z" fill="#5ba5a2" stroke="#5ba5a2"></path><path d="M389 600L464 600L436 513Z" fill="#689594" stroke="#689594"></path><path d="M471 537L612 600L575 491Z" fill="#3cbcb4" stroke="#3cbcb4"></path><path d="M389 600L436 513L298 518Z" fill="#5ba5a2" stroke="#5ba5a2"></path><path d="M274 600L389 600L298 518Z" fill="#2ac4ba" stroke="#2ac4ba"></path><path d="M403 60L309 98L363 169Z" fill="#689594" stroke="#689594"></path><path d="M480 79L403 60L363 169Z" fill="#5ba5a2" stroke="#5ba5a2"></path><path d="M612 600L677 466L575 491Z" fill="#747e7e" stroke="#747e7e"></path><path d="M575 491L677 466L592 416Z" fill="#53ada8" stroke="#53ada8"></path><path d="M309 98L220 136L271 198Z" fill="#629d9b" stroke="#629d9b"></path><path d="M120 218L108 287L175 295Z" fill="#00ccbf" stroke="#00ccbf"></path><path d="M778 394L715 281L662 397Z" fill="#2ac4ba" stroke="#2ac4ba"></path><path d="M662 397L715 281L631 309Z" fill="#718686" stroke="#718686"></path><path d="M193 371L126 372L229 496Z" fill="#53ada8" stroke="#53ada8"></path><path d="M175 295L126 372L193 371Z" fill="#718686" stroke="#718686"></path><path d="M108 287L126 372L175 295Z" fill="#00ccbf" stroke="#00ccbf"></path><path d="M229 496L274 600L298 518Z" fill="#689594" stroke="#689594"></path><path d="M164 600L274 600L229 496Z" fill="#689594" stroke="#689594"></path><path d="M715 281L715 238L631 309Z" fill="#629d9b" stroke="#629d9b"></path><path d="M605 172L611 84L480 79Z" fill="#689594" stroke="#689594"></path><path d="M668 106L611 84L605 172Z" fill="#49b5ae" stroke="#49b5ae"></path><path d="M480 79L404 0L403 60Z" fill="#53ada8" stroke="#53ada8"></path><path d="M464 600L612 600L471 537Z" fill="#5ba5a2" stroke="#5ba5a2"></path><path d="M120 218L175 295L209 225Z" fill="#2ac4ba" stroke="#2ac4ba"></path><path d="M220 136L120 218L209 225Z" fill="#53ada8" stroke="#53ada8"></path><path d="M715 238L668 106L605 172Z" fill="#629d9b" stroke="#629d9b"></path><path d="M529 0L480 79L611 84Z" fill="#3cbcb4" stroke="#3cbcb4"></path><path d="M529 0L404 0L480 79Z" fill="#3cbcb4" stroke="#3cbcb4"></path><path d="M403 60L271 0L309 98Z" fill="#53ada8" stroke="#53ada8"></path><path d="M309 98L271 0L220 136Z" fill="#718686" stroke="#718686"></path><path d="M636 0L529 0L611 84Z" fill="#2ac4ba" stroke="#2ac4ba"></path><path d="M677 466L778 394L662 397Z" fill="#747e7e" stroke="#747e7e"></path><path d="M715 281L823 274L715 238Z" fill="#2ac4ba" stroke="#2ac4ba"></path><path d="M677 0L636 0L668 106Z" fill="#689594" stroke="#689594"></path><path d="M838 509L778 394L677 466Z" fill="#3cbcb4" stroke="#3cbcb4"></path><path d="M612 600L685 600L677 466Z" fill="#5ba5a2" stroke="#5ba5a2"></path><path d="M73 506L164 600L229 496Z" fill="#5ba5a2" stroke="#5ba5a2"></path><path d="M73 506L229 496L126 372Z" fill="#6d8e8d" stroke="#6d8e8d"></path><path d="M404 0L271 0L403 60Z" fill="#718686" stroke="#718686"></path><path d="M220 136L71 128L120 218Z" fill="#718686" stroke="#718686"></path><path d="M0 393L73 506L126 372Z" fill="#718686" stroke="#718686"></path><path d="M777 134L668 106L715 238Z" fill="#5ba5a2" stroke="#5ba5a2"></path><path d="M668 106L636 0L611 84Z" fill="#718686" stroke="#718686"></path><path d="M778 394L823 274L715 281Z" fill="#629d9b" stroke="#629d9b"></path><path d="M813 180L777 134L715 238Z" fill="#3cbcb4" stroke="#3cbcb4"></path><path d="M73 506L113 600L164 600Z" fill="#629d9b" stroke="#629d9b"></path><path d="M120 218L0 271L108 287Z" fill="#49b5ae" stroke="#49b5ae"></path><path d="M108 287L0 393L126 372Z" fill="#00ccbf" stroke="#00ccbf"></path><path d="M139 0L71 128L220 136Z" fill="#00ccbf" stroke="#00ccbf"></path><path d="M823 274L813 180L715 238Z" fill="#53ada8" stroke="#53ada8"></path><path d="M773 0L668 106L777 134Z" fill="#629d9b" stroke="#629d9b"></path><path d="M773 0L677 0L668 106Z" fill="#747e7e" stroke="#747e7e"></path><path d="M271 0L174 0L220 136Z" fill="#00ccbf" stroke="#00ccbf"></path><path d="M0 271L0 393L108 287Z" fill="#747e7e" stroke="#747e7e"></path><path d="M73 506L0 539L113 600Z" fill="#53ada8" stroke="#53ada8"></path><path d="M0 181L0 271L120 218Z" fill="#5ba5a2" stroke="#5ba5a2"></path><path d="M174 0L139 0L220 136Z" fill="#629d9b" stroke="#629d9b"></path><path d="M789 600L838 509L677 466Z" fill="#3cbcb4" stroke="#3cbcb4"></path><path d="M778 394L900 365L823 274Z" fill="#2ac4ba" stroke="#2ac4ba"></path><path d="M685 600L789 600L677 466Z" fill="#3cbcb4" stroke="#3cbcb4"></path><path d="M0 77L0 181L71 128Z" fill="#689594" stroke="#689594"></path><path d="M71 128L0 181L120 218Z" fill="#629d9b" stroke="#629d9b"></path><path d="M0 393L0 539L73 506Z" fill="#747e7e" stroke="#747e7e"></path><path d="M900 483L900 365L778 394Z" fill="#53ada8" stroke="#53ada8"></path><path d="M823 274L900 167L813 180Z" fill="#718686" stroke="#718686"></path><path d="M900 365L900 284L823 274Z" fill="#689594" stroke="#689594"></path><path d="M900 71L773 0L777 134Z" fill="#00ccbf" stroke="#00ccbf"></path><path d="M900 71L777 134L813 180Z" fill="#49b5ae" stroke="#49b5ae"></path><path d="M900 600L900 483L838 509Z" fill="#53ada8" stroke="#53ada8"></path><path d="M838 509L900 483L778 394Z" fill="#3cbcb4" stroke="#3cbcb4"></path><path d="M139 0L0 77L71 128Z" fill="#00ccbf" stroke="#00ccbf"></path><path d="M0 539L0 600L113 600Z" fill="#629d9b" stroke="#629d9b"></path><path d="M900 284L900 167L823 274Z" fill="#689594" stroke="#689594"></path><path d="M789 600L900 600L838 509Z" fill="#00ccbf" stroke="#00ccbf"></path><path d="M900 167L900 71L813 180Z" fill="#718686" stroke="#718686"></path><path d="M139 0L0 0L0 77Z" fill="#689594" stroke="#689594"></path><path d="M900 71L900 0L773 0Z" fill="#49b5ae" stroke="#49b5ae"></path></g></svg>