<svg id="visual" viewBox="0 0 900 600" width="900" height="600" xmlns="http://www.w3.org/2000/svg" xmlns:xlink="http://www.w3.org/1999/xlink" version="1.1"><g stroke-width="1" stroke-linejoin="bevel"><path d="M436 305L534 402L511 267Z" fill="#1b78a8" stroke="#1b78a8"></path><path d="M534 402L568 270L511 267Z" fill="#3392cf" stroke="#3392cf"></path><path d="M534 402L631 361L568 270Z" fill="#3392cf" stroke="#3392cf"></path><path d="M436 305L360 391L534 402Z" fill="#1b78a8" stroke="#1b78a8"></path><path d="M370 231L336 336L436 305Z" fill="#2785bb" stroke="#2785bb"></path><path d="M436 305L336 336L360 391Z" fill="#3392cf" stroke="#3392cf"></path><path d="M669 296L585 198L568 270Z" fill="#4facf7" stroke="#4facf7"></path><path d="M568 270L585 198L511 267Z" fill="#15719e" stroke="#15719e"></path><path d="M475 162L370 231L436 305Z" fill="#1b78a8" stroke="#1b78a8"></path><path d="M475 162L436 305L511 267Z" fill="#2d8bc5" stroke="#2d8bc5"></path><path d="M631 361L669 296L568 270Z" fill="#15719e" stroke="#15719e"></path><path d="M585 198L475 162L511 267Z" fill="#3a98d9" stroke="#3a98d9"></path><path d="M508 539L606 486L534 402Z" fill="#217eb2" stroke="#217eb2"></path><path d="M534 402L606 486L631 361Z" fill="#15719e" stroke="#15719e"></path><path d="M631 361L739 364L669 296Z" fill="#419fe3" stroke="#419fe3"></path><path d="M373 495L508 539L534 402Z" fill="#3a98d9" stroke="#3a98d9"></path><path d="M268 476L373 495L360 391Z" fill="#48a5ed" stroke="#48a5ed"></path><path d="M360 391L373 495L534 402Z" fill="#1b78a8" stroke="#1b78a8"></path><path d="M622 67L539 124L585 198Z" fill="#3a98d9" stroke="#3a98d9"></path><path d="M585 198L539 124L475 162Z" fill="#2785bb" stroke="#2785bb"></path><path d="M160 337L286 386L336 336Z" fill="#2785bb" stroke="#2785bb"></path><path d="M336 336L286 386L360 391Z" fill="#48a5ed" stroke="#48a5ed"></path><path d="M602 600L674 498L606 486Z" fill="#217eb2" stroke="#217eb2"></path><path d="M606 486L674 498L631 361Z" fill="#15719e" stroke="#15719e"></path><path d="M403 115L337 165L370 231Z" fill="#2785bb" stroke="#2785bb"></path><path d="M370 231L178 192L336 336Z" fill="#4facf7" stroke="#4facf7"></path><path d="M403 115L370 231L475 162Z" fill="#419fe3" stroke="#419fe3"></path><path d="M674 498L739 364L631 361Z" fill="#1b78a8" stroke="#1b78a8"></path><path d="M669 296L735 197L585 198Z" fill="#3a98d9" stroke="#3a98d9"></path><path d="M539 124L403 115L475 162Z" fill="#3392cf" stroke="#3392cf"></path><path d="M384 600L535 600L508 539Z" fill="#2d8bc5" stroke="#2d8bc5"></path><path d="M508 539L602 600L606 486Z" fill="#2785bb" stroke="#2785bb"></path><path d="M286 386L268 476L360 391Z" fill="#48a5ed" stroke="#48a5ed"></path><path d="M373 495L384 600L508 539Z" fill="#3392cf" stroke="#3392cf"></path><path d="M785 220L735 197L669 296Z" fill="#0f6b95" stroke="#0f6b95"></path><path d="M789 526L774 368L739 364Z" fill="#0f6b95" stroke="#0f6b95"></path><path d="M739 364L785 220L669 296Z" fill="#4facf7" stroke="#4facf7"></path><path d="M535 600L602 600L508 539Z" fill="#4facf7" stroke="#4facf7"></path><path d="M674 498L789 526L739 364Z" fill="#217eb2" stroke="#217eb2"></path><path d="M330 600L384 600L373 495Z" fill="#3392cf" stroke="#3392cf"></path><path d="M286 386L222 434L268 476Z" fill="#4facf7" stroke="#4facf7"></path><path d="M268 476L330 600L373 495Z" fill="#0f6b95" stroke="#0f6b95"></path><path d="M160 337L222 434L286 386Z" fill="#3392cf" stroke="#3392cf"></path><path d="M718 125L622 67L585 198Z" fill="#3a98d9" stroke="#3a98d9"></path><path d="M539 124L471 0L403 115Z" fill="#0f6b95" stroke="#0f6b95"></path><path d="M735 197L718 125L585 198Z" fill="#3a98d9" stroke="#3a98d9"></path><path d="M837 280L785 220L739 364Z" fill="#15719e" stroke="#15719e"></path><path d="M735 197L788 134L718 125Z" fill="#0f6b95" stroke="#0f6b95"></path><path d="M602 600L670 600L674 498Z" fill="#3a98d9" stroke="#3a98d9"></path><path d="M235 526L330 600L268 476Z" fill="#3a98d9" stroke="#3a98d9"></path><path d="M403 115L278 108L337 165Z" fill="#4facf7" stroke="#4facf7"></path><path d="M178 192L160 337L336 336Z" fill="#2785bb" stroke="#2785bb"></path><path d="M305 0L278 108L403 115Z" fill="#4facf7" stroke="#4facf7"></path><path d="M222 434L235 526L268 476Z" fill="#419fe3" stroke="#419fe3"></path><path d="M622 67L471 0L539 124Z" fill="#15719e" stroke="#15719e"></path><path d="M178 192L370 231L337 165Z" fill="#48a5ed" stroke="#48a5ed"></path><path d="M222 434L114 520L235 526Z" fill="#48a5ed" stroke="#48a5ed"></path><path d="M900 339L837 280L774 368Z" fill="#419fe3" stroke="#419fe3"></path><path d="M774 368L837 280L739 364Z" fill="#48a5ed" stroke="#48a5ed"></path><path d="M785 220L788 134L735 197Z" fill="#3a98d9" stroke="#3a98d9"></path><path d="M471 0L437 0L403 115Z" fill="#48a5ed" stroke="#48a5ed"></path><path d="M670 600L789 526L674 498Z" fill="#4facf7" stroke="#4facf7"></path><path d="M900 230L788 134L785 220Z" fill="#48a5ed" stroke="#48a5ed"></path><path d="M676 0L637 0L622 67Z" fill="#4facf7" stroke="#4facf7"></path><path d="M622 67L637 0L471 0Z" fill="#217eb2" stroke="#217eb2"></path><path d="M278 108L178 192L337 165Z" fill="#48a5ed" stroke="#48a5ed"></path><path d="M676 0L622 67L718 125Z" fill="#48a5ed" stroke="#48a5ed"></path><path d="M235 526L237 600L330 600Z" fill="#1b78a8" stroke="#1b78a8"></path><path d="M129 600L237 600L235 526Z" fill="#3a98d9" stroke="#3a98d9"></path><path d="M774 0L676 0L718 125Z" fill="#4facf7" stroke="#4facf7"></path><path d="M437 0L305 0L403 115Z" fill="#2785bb" stroke="#2785bb"></path><path d="M131 120L127 197L178 192Z" fill="#48a5ed" stroke="#48a5ed"></path><path d="M178 192L127 197L160 337Z" fill="#2d8bc5" stroke="#2d8bc5"></path><path d="M168 82L178 192L278 108Z" fill="#4facf7" stroke="#4facf7"></path><path d="M900 395L900 339L774 368Z" fill="#0f6b95" stroke="#0f6b95"></path><path d="M837 280L900 230L785 220Z" fill="#419fe3" stroke="#419fe3"></path><path d="M789 526L900 395L774 368Z" fill="#1b78a8" stroke="#1b78a8"></path><path d="M900 339L900 230L837 280Z" fill="#48a5ed" stroke="#48a5ed"></path><path d="M788 134L774 0L718 125Z" fill="#3a98d9" stroke="#3a98d9"></path><path d="M670 600L823 600L789 526Z" fill="#2d8bc5" stroke="#2d8bc5"></path><path d="M789 526L900 533L900 395Z" fill="#3392cf" stroke="#3392cf"></path><path d="M305 0L168 82L278 108Z" fill="#15719e" stroke="#15719e"></path><path d="M67 364L222 434L160 337Z" fill="#419fe3" stroke="#419fe3"></path><path d="M67 364L114 520L222 434Z" fill="#0f6b95" stroke="#0f6b95"></path><path d="M168 82L131 120L178 192Z" fill="#2d8bc5" stroke="#2d8bc5"></path><path d="M0 316L69 326L0 210Z" fill="#15719e" stroke="#15719e"></path><path d="M127 197L69 326L160 337Z" fill="#419fe3" stroke="#419fe3"></path><path d="M69 326L67 364L160 337Z" fill="#2785bb" stroke="#2785bb"></path><path d="M900 93L774 0L788 134Z" fill="#48a5ed" stroke="#48a5ed"></path><path d="M823 600L900 533L789 526Z" fill="#1b78a8" stroke="#1b78a8"></path><path d="M0 600L129 600L114 520Z" fill="#2d8bc5" stroke="#2d8bc5"></path><path d="M114 520L129 600L235 526Z" fill="#3a98d9" stroke="#3a98d9"></path><path d="M900 230L900 93L788 134Z" fill="#48a5ed" stroke="#48a5ed"></path><path d="M305 0L164 0L168 82Z" fill="#0f6b95" stroke="#0f6b95"></path><path d="M168 82L128 0L131 120Z" fill="#0f6b95" stroke="#0f6b95"></path><path d="M0 210L69 326L127 197Z" fill="#4facf7" stroke="#4facf7"></path><path d="M823 600L900 600L900 533Z" fill="#217eb2" stroke="#217eb2"></path><path d="M0 210L127 197L131 120Z" fill="#217eb2" stroke="#217eb2"></path><path d="M69 326L0 316L67 364Z" fill="#0f6b95" stroke="#0f6b95"></path><path d="M67 364L0 482L114 520Z" fill="#15719e" stroke="#15719e"></path><path d="M164 0L128 0L168 82Z" fill="#3a98d9" stroke="#3a98d9"></path><path d="M0 316L0 407L67 364Z" fill="#1b78a8" stroke="#1b78a8"></path><path d="M0 70L0 210L131 120Z" fill="#4facf7" stroke="#4facf7"></path><path d="M0 407L0 482L67 364Z" fill="#419fe3" stroke="#419fe3"></path><path d="M900 93L900 0L774 0Z" fill="#48a5ed" stroke="#48a5ed"></path><path d="M0 482L0 600L114 520Z" fill="#48a5ed" stroke="#48a5ed"></path><path d="M128 0L0 70L131 120Z" fill="#1b78a8" stroke="#1b78a8"></path><path d="M128 0L0 0L0 70Z" fill="#419fe3" stroke="#419fe3"></path></g></svg>